<?xml version="1.0" standalone="no"?>
<!DOCTYPE svg PUBLIC "-//W3C//DTD SVG 20010904//EN"
 "http://www.w3.org/TR/2001/REC-SVG-20010904/DTD/svg10.dtd">
<svg version="1.0" xmlns="http://www.w3.org/2000/svg"
 width="300.000000pt" height="300.000000pt" viewBox="0 0 300.000000 300.000000"
 preserveAspectRatio="xMidYMid meet">
<metadata>
Created by potrace 1.16, written by Peter Selinger 2001-2019
</metadata>
<g transform="translate(0.000000,300.000000) scale(0.100000,-0.100000)"
fill="#000000" stroke="none">
<path d="M0 1500 l0 -1500 1500 0 1500 0 0 1500 0 1500 -1500 0 -1500 0 0
-1500z m1430 1323 c0 -67 1 -68 35 -91 l35 -22 35 22 c34 23 35 24 35 91 0 37
4 67 8 67 16 0 54 -43 68 -76 29 -70 10 -143 -50 -189 -27 -20 -36 -35 -36
-56 0 -29 -1 -29 -60 -29 -59 0 -60 0 -60 29 0 21 -9 36 -36 56 -60 46 -79
119 -50 189 14 33 52 76 68 76 4 0 8 -30 8 -67z m-775 -368 c61 -14 127 -31
149 -36 l39 -10 -42 -43 -41 -42 22 -22 23 -22 -43 -42 -42 -43 -22 23 -22 22
-43 -42 c-30 -30 -44 -37 -47 -27 -3 8 -19 75 -36 149 -18 74 -34 143 -37 153
-4 15 -1 18 14 13 10 -3 68 -17 128 -31z m1831 18 c-3 -10 -17 -67 -31 -128
-14 -60 -31 -127 -36 -149 l-10 -39 -43 42 -42 41 -22 -22 -22 -23 -42 42 -42
42 22 24 22 23 -40 39 c-22 21 -38 41 -35 43 4 4 295 78 318 81 5 1 6 -7 3
-16z m-916 -160 c0 -17 -64 -193 -70 -193 -6 0 -70 176 -70 193 0 4 32 7 70 7
39 0 70 -3 70 -7z m-547 -279 c27 -53 46 -98 44 -101 -4 -4 -184 82 -196 93
-5 5 90 104 99 104 3 0 27 -43 53 -96z m1072 35 l38 -42 -98 -49 c-53 -27 -99
-47 -102 -45 -2 3 17 48 43 100 54 108 54 108 119 36z m-1705 -454 l0 -55 35
0 35 0 0 -60 0 -60 -35 0 -35 0 0 -55 c0 -30 -4 -55 -9 -55 -15 0 -271 161
-271 170 0 9 259 170 272 170 5 0 8 -25 8 -55z m2377 -31 c68 -42 123 -80 123
-84 0 -8 -229 -153 -262 -165 -16 -6 -18 0 -18 49 l0 56 -35 0 -35 0 0 60 0
60 35 0 35 0 0 56 c0 68 -10 70 157 -32z m-1979 -46 c50 -17 92 -34 92 -38 0
-6 -176 -70 -192 -70 -5 0 -8 32 -8 70 0 39 3 70 8 70 4 0 49 -14 100 -32z
m1532 -38 c0 -38 -3 -70 -7 -70 -17 0 -193 64 -193 70 0 7 166 68 188 69 8 1
12 -19 12 -69z m-1250 -435 c0 -10 -95 -195 -100 -195 -9 0 -104 99 -99 104 7
7 184 95 192 95 4 1 7 -1 7 -4z m963 -41 c50 -26 94 -48 96 -50 6 -5 -90 -104
-100 -104 -5 0 -99 185 -99 196 0 8 12 3 103 -42z m-495 -236 c18 -51 32 -96
32 -100 0 -5 -31 -8 -70 -8 -38 0 -70 3 -70 8 0 16 64 192 70 192 4 0 21 -42
38 -92z m-840 -6 l22 23 42 -43 43 -42 -23 -22 -22 -22 42 -43 c29 -30 37 -44
27 -47 -29 -9 -313 -75 -316 -73 -2 3 64 287 73 316 3 10 17 2 47 -27 l43 -42
22 22z m1753 -109 c20 -87 36 -159 35 -160 -2 -2 -290 64 -315 73 -10 3 -3 17
27 47 l42 43 -22 22 -23 22 42 42 42 42 24 -22 23 -22 39 40 c21 22 41 38 43
35 3 -2 22 -75 43 -162z m-891 -249 c0 -20 9 -51 19 -68 20 -31 20 -32 0 -121
-29 -134 -24 -125 -79 -125 -55 0 -50 -9 -79 125 -20 89 -20 90 0 121 10 17
19 48 19 68 l0 36 60 0 60 0 0 -36z"/>
</g>
</svg>
